<?xml version="1.0" encoding="UTF-8" standalone="no"?>
<!-- Created with Inkscape (http://www.inkscape.org/) -->

<svg
   version="1.1"
   id="svg1"
   width="1573.4788"
   height="1573.479"
   viewBox="0 0 1573.4788 1573.479"
   xml:space="preserve"
   xmlns="http://www.w3.org/2000/svg"
   xmlns:svg="http://www.w3.org/2000/svg"><defs
     id="defs1" /><g
     id="g1"
     transform="translate(-3665.6614,-3334.8936)"><rect
       style="opacity:0.98;fill:#3e67c5;fill-opacity:1;stroke:none;stroke-width:6.91654;stroke-linecap:square;stroke-linejoin:round;paint-order:markers fill stroke"
       id="rect9"
       width="1573.4789"
       height="1573.4789"
       x="3665.6614"
       y="3334.8936"
       rx="344.61392"
       ry="344.61392" /><path
       style="fill:#ffffff;stroke:none;stroke-width:1.43412"
       d="m 4452.1438,4502.9077 v 129.0711 c 0,15.1516 -3.3931,36.6397 12.9127,44.9049 21.9354,11.1185 52.028,-23.4505 67.3981,-35.7271 39.5661,-31.6028 79.1116,-63.2477 119.032,-94.3996 16.3189,-12.7345 33.9983,-32.8734 53.0625,-41.0696 12.1625,-5.2289 32.7479,-1.3455 45.8919,-1.3455 h 104.6908 c 23.6276,0 50.0449,0.9797 63.2376,-22.9459 6.6815,-12.1178 5.6002,-26.8037 5.6002,-40.1554 v -70.2719 -263.8783 c 0,-104.9866 -5.1417,-207.2612 -58.1903,-301.1654 -40.7547,-72.1425 -97.0916,-132.7515 -168.4008,-175.5359 -214.3228,-128.5907 -505.3766,-64.5845 -641.4936,146.8534 -41.8359,64.9862 -65.5275,138.4987 -72.9422,215.1182 -5.5641,57.4962 -0.463,116.3924 15.4145,172.0945 17.2327,60.4563 46.5337,115.854 85.7908,164.9239 41.9022,52.3769 95.8228,95.1613 155.7459,125.1227 66.4826,33.2409 138.2385,48.4059 212.2499,48.4059 m 268.1806,-84.613 c -10.2935,-22.9281 -11.6737,-45.593 -29.1129,-65.9697 -68.6836,-80.2526 -185.1662,-37.7154 -276.3548,-50.8083 -91.2172,-13.0969 -172.335,-73.4458 -208.7686,-158.5733 -72.0168,-168.2681 44.7802,-370.3659 231.7145,-378.5514 34.1715,-1.4963 67.9501,2.992 100.3885,13.8067 33.2442,11.0834 63.7279,28.4786 90.3496,51.2864 50.4583,43.2295 81.7875,105.9689 89.939,171.4803 5.2009,41.7964 1.8447,85.5409 1.8447,127.6368 v 289.6925"
       id="path9" /></g></svg>
