<?xml version="1.0" encoding="UTF-8" standalone="no"?>
<!-- Created with Inkscape (http://www.inkscape.org/) -->

<svg
   version="1.1"
   id="svg1"
   width="943.2666"
   height="1114.8462"
   viewBox="0 0 943.2666 1114.8462"
   xml:space="preserve"
   xmlns="http://www.w3.org/2000/svg"
   xmlns:svg="http://www.w3.org/2000/svg"><defs
     id="defs1" /><g
     id="g1"
     transform="translate(-936.3667,-3508.7231)"><g
       id="g7"
       transform="translate(105.77065,1684.012)"><path
         style="fill:#000000;stroke:none;stroke-width:1.43412"
         d="m 1301.9722,2763.4092 v 129.0711 c 0,15.1516 -3.3931,36.6397 12.9127,44.9049 21.9354,11.1185 52.028,-23.4505 67.3981,-35.7271 39.5661,-31.6028 79.1116,-63.2477 119.032,-94.3996 16.3189,-12.7345 33.9983,-32.8734 53.0625,-41.0696 12.1625,-5.2289 32.7479,-1.3455 45.8919,-1.3455 h 104.6908 c 23.6276,0 50.0449,0.9797 63.2376,-22.9459 6.6815,-12.1178 5.6002,-26.8037 5.6002,-40.1554 v -70.2719 -263.8783 c 0,-104.9866 -5.1417,-207.2612 -58.1903,-301.1654 -40.7547,-72.1425 -97.0916,-132.7514 -168.4008,-175.5359 -214.3228,-128.5907 -505.3765,-64.5845 -641.49357,146.8535 -41.83589,64.9861 -65.52743,138.4986 -72.94212,215.1181 -5.5641,57.4962 -0.46308,116.3925 15.4145,172.0945 17.2327,60.4563 46.53364,115.854 85.79074,164.924 41.9022,52.3768 95.82285,95.1612 155.74595,125.1226 66.4826,33.2409 138.2385,48.4059 212.2498,48.4059 m 268.1806,-84.613 c -10.2935,-22.9281 -11.6737,-45.593 -29.1129,-65.9696 -68.6836,-80.2526 -185.1662,-37.7155 -276.3548,-50.8084 -91.2171,-13.0969 -172.3349,-73.4458 -208.7685,-158.5733 -72.01685,-168.2681 44.7802,-370.3659 231.7144,-378.5514 34.1715,-1.4962 67.9501,2.992 100.3885,13.8067 33.2442,11.0834 63.7279,28.4786 90.3496,51.2864 50.4583,43.2295 81.7875,105.969 89.939,171.4803 5.2009,41.7964 1.8447,85.5409 1.8447,127.6368 v 289.6925"
         id="path7" /></g></g></svg>
