<?xml version="1.0" encoding="UTF-8" standalone="no"?>
<!-- Created with Inkscape (http://www.inkscape.org/) -->

<svg
   version="1.1"
   id="svg1"
   width="943.2666"
   height="1114.8463"
   viewBox="0 0 943.2666 1114.8463"
   xml:space="preserve"
   xmlns:xlink="http://www.w3.org/1999/xlink"
   xmlns="http://www.w3.org/2000/svg"
   xmlns:svg="http://www.w3.org/2000/svg"><defs
     id="defs1"><linearGradient
       id="linearGradient1"><stop
         style="stop-color:#416ecb;stop-opacity:1;"
         offset="0"
         id="stop1" /><stop
         style="stop-color:#2d46a6;stop-opacity:1;"
         offset="1"
         id="stop2" /></linearGradient><linearGradient
       xlink:href="#linearGradient1"
       id="linearGradient7"
       gradientUnits="userSpaceOnUse"
       gradientTransform="matrix(1.4341211,0,0,1.4341211,604.52735,1315.6694)"
       x1="509.89462"
       y1="383.37906"
       x2="569.07904"
       y2="1155.1715" /></defs><g
     id="g1"
     transform="translate(-936.3667,-1859.6512)"><path
       style="fill:url(#linearGradient7);stroke:none;stroke-width:1.43412"
       d="m 1407.7429,2798.3492 v 129.0711 c 0,15.1516 -3.3931,36.6397 12.9127,44.9049 21.9354,11.1185 52.028,-23.4505 67.3981,-35.7271 39.5661,-31.6028 79.1116,-63.2477 119.032,-94.3996 16.3189,-12.7345 33.9983,-32.8734 53.0625,-41.0696 12.1625,-5.2289 32.7479,-1.3455 45.8919,-1.3455 h 104.6908 c 23.6276,0 50.0449,0.9797 63.2376,-22.9459 6.6815,-12.1178 5.6002,-26.8037 5.6002,-40.1554 v -70.2719 -263.8783 c 0,-104.9866 -5.1417,-207.2612 -58.1903,-301.1654 -40.7547,-72.1425 -97.0916,-132.7515 -168.4008,-175.5359 -214.3228,-128.5907 -505.3766,-64.5845 -641.4936,146.8534 -41.83593,64.9862 -65.52745,138.4987 -72.94215,215.1182 -5.5641,57.4961 -0.4631,116.3924 15.41452,172.0945 17.2327,60.4563 46.53363,115.854 85.79073,164.9239 41.9022,52.3769 95.8228,95.1613 155.7459,125.1227 66.4826,33.2409 138.2385,48.4059 212.2499,48.4059 m 268.1806,-84.613 c -10.2935,-22.9281 -11.6737,-45.593 -29.1129,-65.9697 -68.6836,-80.2526 -185.1662,-37.7155 -276.3548,-50.8083 -91.2172,-13.0969 -172.335,-73.4458 -208.7686,-158.5733 -72.0168,-168.2681 44.7802,-370.3659 231.7145,-378.5515 34.1715,-1.4962 67.9501,2.9921 100.3885,13.8068 33.2442,11.0834 63.7279,28.4786 90.3496,51.2864 50.4583,43.2294 81.7875,105.969 89.939,171.4803 5.2009,41.7964 1.8447,85.5409 1.8447,127.6368 v 289.6925"
       id="path6" /></g></svg>
