<?xml version="1.0" encoding="UTF-8" standalone="no"?>
<!-- Created with Inkscape (http://www.inkscape.org/) -->

<svg
   version="1.1"
   id="svg1"
   width="2620.9702"
   height="1496.8275"
   viewBox="0 0 2620.9702 1496.8275"
   xml:space="preserve"
   xmlns:xlink="http://www.w3.org/1999/xlink"
   xmlns="http://www.w3.org/2000/svg"
   xmlns:svg="http://www.w3.org/2000/svg"><defs
     id="defs1"><linearGradient
       id="linearGradient13"><stop
         style="stop-color:#3b63c0;stop-opacity:1;"
         offset="0"
         id="stop13" /><stop
         style="stop-color:#101934;stop-opacity:1;"
         offset="1"
         id="stop14" /></linearGradient><linearGradient
       xlink:href="#linearGradient13"
       id="linearGradient14"
       x1="145.54642"
       y1="653.77356"
       x2="2766.5166"
       y2="653.77356"
       gradientUnits="userSpaceOnUse" /><linearGradient
       xlink:href="#linearGradient13"
       id="linearGradient15"
       gradientUnits="userSpaceOnUse"
       x1="145.54642"
       y1="189.32196"
       x2="1583.7904"
       y2="1255.7484" /></defs><g
     id="g1"
     transform="translate(-166.14508,1897.5664)"><g
       id="g15"><g
         id="g12"
         transform="translate(20.598661,-1851.7392)"
         style="fill:url(#linearGradient14);fill-opacity:1"><path
           id="path11"
           style="fill:url(#linearGradient15);fill-opacity:1;stroke:none;stroke-width:1.43412"
           d="m 2414.0693,-45.827206 c -56.2589,0 -102.5892,18.20258 -138.9922,54.6054685 -36.4028,36.4028885 -54.6054,82.7331795 -54.6054,138.9921875 v 21.51172 l 148.9218,59.56836 v -94.31641 h 349.1367 l 47.9864,-180.361326 z m -860.4316,130.720703 -218.418,57.914063 8.2734,754.47656 c -33.0934,27.57794 -79.977,41.36719 -140.6484,41.36719 H 1088.749 V 781.40912 c 0,-104.98645 -5.1429,-207.26187 -58.1914,-301.16601 C 989.80288,408.10073 933.46636,347.49232 862.1572,304.70795 647.83461,176.11732 356.77994,240.12181 220.66306,451.55951 c -41.83585,64.98613 -65.52673,138.49973 -72.94141,215.11914 -5.56409,57.49611 -0.4635,116.39173 15.41406,172.09375 17.23269,60.45624 46.534,115.85391 85.79102,164.9238 41.90225,52.3769 95.82299,95.1617 155.74609,125.1231 66.48251,33.2408 138.23868,48.4062 212.25,48.4062 v 129.0703 c 0,15.1516 -3.39368,36.6411 12.91211,44.9063 21.93543,11.1185 52.02842,-23.4519 67.39844,-35.7285 39.56608,-31.6028 79.1108,-63.2466 119.03125,-94.3985 16.31884,-12.7344 33.9983,-32.8741 53.0625,-41.0703 12.16247,-5.2289 32.74859,-1.3457 45.89258,-1.3457 h 104.6914 c 0.6271,0 1.2794,-0.024 1.9102,-0.023 h 61.8886 124.0996 c 57.3622,0 108.657,-9.9271 153.8848,-29.7832 45.2279,-19.8562 82.1822,-47.9858 110.8633,-84.3887 35.2998,76.1151 101.4882,114.1719 198.5625,114.1719 h 72.8066 138.9922 c 75.012,0 141.2004,-14.8916 198.5625,-44.6758 58.4653,-29.7842 103.1419,-71.703 134.0293,-125.7559 31.9904,-55.15583 47.9844,-118.5844 47.9844,-190.28707 0,-35.29976 -4.4114,-73.90964 -13.2363,-115.82812 L 2160.9052,378.49115 1947.4521,481.081 2048.3877,898.93842 c -37.5061,26.47482 -89.354,39.71289 -155.541,39.71289 h -148.92 -64.5332 c -38.609,0 -69.4966,-11.03139 -92.6621,-33.09375 -22.0624,-23.16548 -33.0937,-52.39944 -33.0937,-87.69922 z m 1082.1601,148.919923 -216.7636,59.57031 v 918.34567 l 216.7636,-59.5683 z M 602.58103,438.7099 c 34.17148,-1.49621 67.95031,2.99195 100.38867,13.80664 33.24419,11.08346 63.7279,28.47931 90.34961,51.28711 50.45821,43.22938 81.7879,105.96918 89.93945,171.48047 5.20083,41.79633 1.84375,85.54086 1.84375,127.63672 v 289.69136 c -10.29354,-22.928 -11.6741,-45.592 -29.11328,-65.9687 C 787.30567,946.39098 670.8242,988.92772 579.63571,975.8349 488.41868,962.73798 407.2997,902.38807 370.86618,817.26068 298.84943,648.99269 415.64684,446.89543 602.58103,438.7099 Z" /></g><path
         d="m 1604.3891,-566.20664 c 0,-19.85613 10.4797,-29.78419 31.4389,-29.78419 h 158.8491 c 17.6499,0 26.4748,9.92806 26.4748,29.78419 v 137.3382 c 0,18.753 -8.8249,28.12951 -26.4748,28.12951 H 1635.828 c -20.9592,0 -31.4389,-9.37651 -31.4389,-28.12951 z"
         style="font-weight:bold;font-size:1264.39px;line-height:1.4;font-family:Rokh;-inkscape-font-specification:'Rokh Bold';font-feature-settings:'ss02';letter-spacing:0px;word-spacing:0px;direction:rtl;opacity:0.98;fill:#fe5e37;fill-opacity:1;stroke-width:59.6069;stroke-linecap:square;stroke-linejoin:round;paint-order:markers fill stroke"
         id="path1-2-5" /><path
         d="m 1857.9898,-566.20664 c 0,-19.85613 10.4797,-29.78419 31.4389,-29.78419 h 158.8491 c 17.6499,0 26.4748,9.92806 26.4748,29.78419 v 137.3382 c 0,18.753 -8.8249,28.12951 -26.4748,28.12951 h -158.8491 c -20.9592,0 -31.4389,-9.37651 -31.4389,-28.12951 z"
         style="font-weight:bold;font-size:1264.39px;line-height:1.4;font-family:Rokh;-inkscape-font-specification:'Rokh Bold';font-feature-settings:'ss02';letter-spacing:0px;word-spacing:0px;direction:rtl;opacity:0.98;fill:#fe5e37;fill-opacity:1;stroke-width:59.6069;stroke-linecap:square;stroke-linejoin:round;paint-order:markers fill stroke"
         id="path12" /></g></g></svg>
