<?xml version="1.0" encoding="UTF-8" standalone="no"?>
<!-- Created with Inkscape (http://www.inkscape.org/) -->

<svg
   version="1.1"
   id="svg1"
   width="2313.3662"
   height="1114.851"
   viewBox="0 0 2313.3662 1114.851"
   xml:space="preserve"
   xmlns:xlink="http://www.w3.org/1999/xlink"
   xmlns="http://www.w3.org/2000/svg"
   xmlns:svg="http://www.w3.org/2000/svg"><defs
     id="defs1"><linearGradient
       id="linearGradient1"><stop
         style="stop-color:#416ecb;stop-opacity:1;"
         offset="0"
         id="stop1" /><stop
         style="stop-color:#2d46a6;stop-opacity:1;"
         offset="1"
         id="stop2" /></linearGradient><linearGradient
       xlink:href="#linearGradient1"
       id="linearGradient2"
       x1="509.89462"
       y1="383.37906"
       x2="569.07904"
       y2="1155.1715"
       gradientUnits="userSpaceOnUse"
       gradientTransform="matrix(1.4341211,0,0,1.4341211,-186.29307,-305.45426)" /></defs><g
     id="g1"
     transform="translate(-251.31686,-210.57449)"><g
       id="g5"
       transform="translate(105.77063,-27.948387)"><path
         style="font-weight:bold;font-size:1264.39px;line-height:1.4;font-family:Rokh;-inkscape-font-specification:'Rokh Bold';font-feature-settings:'ss02';letter-spacing:0px;word-spacing:0px;direction:rtl;opacity:0.98;fill:#070731;stroke-width:52.5067;stroke-linecap:square;stroke-linejoin:round;paint-order:markers fill stroke"
         d="M 1399.2545,515.46245 V 1171.372 H 1217.0574 V 515.46245 Z m 320.6659,-276.93957 v 693.8065 c 0,34.01012 4.8586,58.78892 14.5758,74.33642 10.6889,14.5758 28.1798,23.8071 52.4727,27.694 l 51.0152,7.2879 v 131.1819 h -94.7425 c -70.9353,0 -122.9223,-17.4909 -155.9607,-52.4728 -33.0384,-34.9818 -49.5576,-88.9122 -49.5576,-161.79104 V 238.52288 Z m 180.7403,606.3519 c 0,-86.48288 8.2596,-154.01727 24.7787,-202.60316 17.491,-48.58588 46.6425,-83.56772 87.4546,-104.94552 41.784,-21.37779 101.0587,-32.06669 177.8244,-32.06669 67.0485,0 119.5213,6.80203 157.4183,20.40608 38.8687,13.60404 67.0485,36.92527 84.5394,69.96368 17.4909,33.03841 26.2364,78.70914 26.2364,137.01221 0,62.18994 -18.4627,107.37481 -55.3879,135.55463 -35.9536,27.2081 -88.4263,40.81214 -157.4183,40.81214 h -163.2486 c 1.9435,35.95357 8.2596,63.64752 18.9485,83.08187 10.6889,18.46268 27.2082,31.58088 49.5577,39.35458 22.3495,6.8021 53.9303,10.2031 94.7424,10.2031 h 190.9426 v 107.8606 c -44.699,9.7172 -84.5395,17.005 -119.5213,21.8637 -34.9818,4.8586 -75.3082,7.2878 -120.9789,7.2878 -77.7374,0 -137.984,-10.6889 -180.7395,-32.0666 -41.7839,-22.3495 -71.4212,-57.3313 -88.9122,-104.9455 -17.4909,-48.58595 -26.2363,-114.1769 -26.2363,-196.77292 z m 326.4971,-45.18488 c 24.293,0 41.7839,-4.37273 52.4728,-13.11819 11.6606,-9.71718 17.4909,-26.23638 17.4909,-49.5576 0,-37.897 -7.7737,-63.64752 -23.3212,-77.25157 -15.5475,-14.57576 -42.2698,-21.86365 -80.1667,-21.86365 -44.6991,0 -74.8223,12.14647 -90.3698,36.43942 -15.5476,24.29295 -23.3213,66.0768 -23.3213,125.35159 z"
         id="text2"
         aria-label="ile" /><path
         style="fill:url(#linearGradient2);stroke:none;stroke-width:1.43412"
         d="m 616.92249,1177.2256 v 129.0711 c 0,15.1516 -3.39313,36.6397 12.91268,44.9049 21.93545,11.1185 52.02805,-23.4505 67.39809,-35.7271 39.56612,-31.6028 79.11157,-63.2477 119.03206,-94.3996 16.31886,-12.7345 33.99826,-32.8734 53.06248,-41.0696 12.16248,-5.2289 32.74786,-1.3455 45.89186,-1.3455 h 104.69084 c 23.6276,0 50.0449,0.9797 63.2376,-22.9459 6.6815,-12.1178 5.6002,-26.8037 5.6002,-40.1554 v -70.2719 -263.87835 c 0,-104.98656 -5.1417,-207.26119 -58.1903,-301.16543 C 989.80325,408.10037 933.46642,347.4914 862.15719,304.70699 647.83439,176.11623 356.78054,240.12249 220.66352,451.5604 c -41.83589,64.98619 -65.52743,138.49866 -72.94212,215.11815 -5.5641,57.49616 -0.46308,116.39245 15.4145,172.09453 17.2327,60.4563 46.53364,115.85395 85.7907,164.92392 41.90229,52.3769 95.82281,95.1613 155.74597,125.1227 66.48257,33.2409 138.23852,48.4059 212.24992,48.4059 m 268.18063,-84.613 c -10.29355,-22.9281 -11.67375,-45.593 -29.11295,-65.9697 C 787.30654,946.3903 670.82393,988.92741 579.63535,975.83458 488.41822,962.73764 407.30031,902.38875 370.86676,817.26128 298.84994,648.99312 415.64691,446.89535 602.58128,438.70981 c 34.17152,-1.49621 67.95008,2.99201 100.38847,13.80671 33.24422,11.08347 63.72789,28.47864 90.34962,51.28647 50.45826,43.22942 81.78749,105.96892 89.93905,171.48028 5.20083,41.79637 1.8447,85.5409 1.8447,127.6368 v 289.69253"
         id="path1" /><path
         d="m 1217.0574,264.75926 c 0,-17.49092 9.2314,-26.23638 27.694,-26.23638 h 139.9274 c 15.5475,0 23.3212,8.74546 23.3212,26.23638 v 120.97887 c 0,16.51919 -7.7737,24.7788 -23.3212,24.7788 h -139.9274 c -18.4626,0 -27.694,-8.25961 -27.694,-24.7788 z"
         style="font-weight:bold;font-size:1264.39px;line-height:1.4;font-family:Rokh;-inkscape-font-specification:'Rokh Bold';font-feature-settings:'ss02';letter-spacing:0px;word-spacing:0px;direction:rtl;opacity:0.98;fill:#fe5e37;fill-opacity:1;stroke-width:52.5067;stroke-linecap:square;stroke-linejoin:round;paint-order:markers fill stroke"
         id="path1-2" /></g></g></svg>
