<?xml version="1.0" encoding="UTF-8" standalone="no"?>
<!-- Created with Inkscape (http://www.inkscape.org/) -->

<svg
   version="1.1"
   id="svg1"
   width="2313.3662"
   height="1114.8462"
   viewBox="0 0 2313.3662 1114.8462"
   sodipodi:docname="AileLogo.svg"
   inkscape:version="1.3.2 (091e20e, 2023-11-25, custom)"
   xml:space="preserve"
   xmlns:inkscape="http://www.inkscape.org/namespaces/inkscape"
   xmlns:sodipodi="http://sodipodi.sourceforge.net/DTD/sodipodi-0.dtd"
   xmlns:xlink="http://www.w3.org/1999/xlink"
   xmlns="http://www.w3.org/2000/svg"
   xmlns:svg="http://www.w3.org/2000/svg"><defs
     id="defs1"><inkscape:path-effect
       effect="fillet_chamfer"
       id="path-effect19"
       is_visible="true"
       lpeversion="1"
       nodesatellites_param="F,0,0,1,0,18,0,1 @ F,0,0,1,0,18,0,1 @ F,0,0,1,0,18,0,1 @ F,0,0,1,0,18,0,1"
       radius="18"
       unit="px"
       method="auto"
       mode="F"
       chamfer_steps="1"
       flexible="false"
       use_knot_distance="true"
       apply_no_radius="true"
       apply_with_radius="true"
       only_selected="false"
       hide_knots="false" /><linearGradient
       id="linearGradient1"
       inkscape:collect="always"><stop
         style="stop-color:#416ecb;stop-opacity:1;"
         offset="0"
         id="stop1" /><stop
         style="stop-color:#2d46a6;stop-opacity:1;"
         offset="1"
         id="stop2" /></linearGradient><linearGradient
       inkscape:collect="always"
       xlink:href="#linearGradient1"
       id="linearGradient17"
       gradientUnits="userSpaceOnUse"
       gradientTransform="matrix(1.4341211,0,0,1.4341211,-186.29307,-305.45426)"
       x1="509.89462"
       y1="383.37906"
       x2="569.07904"
       y2="1155.1715" /></defs><sodipodi:namedview
     id="namedview1"
     pagecolor="#ffffff"
     bordercolor="#000000"
     borderopacity="0.25"
     inkscape:showpageshadow="2"
     inkscape:pageopacity="0.0"
     inkscape:pagecheckerboard="0"
     inkscape:deskcolor="#d1d1d1"
     showguides="true"
     inkscape:zoom="0.1767767"
     inkscape:cx="-1142.6846"
     inkscape:cy="-4613.1646"
     inkscape:window-width="1920"
     inkscape:window-height="1009"
     inkscape:window-x="-8"
     inkscape:window-y="-8"
     inkscape:window-maximized="1"
     inkscape:current-layer="g1"><sodipodi:guide
       position="2313.3662,2166.7038"
       orientation="1,0"
       id="guide20"
       inkscape:locked="false" /><sodipodi:guide
       position="5519.049,1660.4153"
       orientation="1,0"
       id="guide21"
       inkscape:locked="false" /><sodipodi:guide
       position="822.01883,595.86779"
       orientation="0,-1"
       id="guide22"
       inkscape:locked="false" /><sodipodi:guide
       position="2042.9121,2325.0957"
       orientation="1,0"
       id="guide23"
       inkscape:locked="false" /><sodipodi:guide
       position="2220.0576,1277.7881"
       orientation="0,-1"
       id="guide24"
       inkscape:locked="false" /><sodipodi:guide
       position="874.36423,1849.3581"
       orientation="0,-1"
       id="guide25"
       inkscape:locked="false" /><sodipodi:guide
       position="1483.2756,2789.495"
       orientation="0,-1"
       id="guide26"
       inkscape:locked="false" /><sodipodi:guide
       position="507.34863,1536"
       orientation="0,-1"
       id="guide27"
       inkscape:locked="false" /><sodipodi:guide
       position="-6.71875e-05,1536"
       orientation="1,0"
       id="guide28"
       inkscape:locked="false" /><sodipodi:guide
       position="1692.4378,1277.7881"
       orientation="1,0"
       id="guide29"
       inkscape:locked="false" /></sodipodi:namedview><g
     inkscape:groupmode="layer"
     inkscape:label="Image"
     id="g1"
     transform="translate(1887.3486,4248.333)"><path
       id="text17"
       style="font-weight:800;font-size:1659.18px;line-height:1.4;font-family:Rokh;-inkscape-font-specification:'Rokh Ultra-Bold';font-feature-settings:'ss02';letter-spacing:0px;word-spacing:0px;direction:rtl;opacity:0.98;fill:#070731;fill-opacity:0.980392;stroke-width:45.5239;stroke-linecap:square;stroke-linejoin:round;paint-order:markers fill stroke"
       d="m -815.8375,-4248.333 6.32031,704.4033 c -51.69603,49.7918 -90.00931,31.5938 -158.33242,31.5938 v 198.3047 c 144.06513,3.3092 318.16506,11.5865 334.20921,-179.6465 h 179.59483 c 57.28836,0 133.83578,-11.3742 177.64453,-34.1211 101.5555,-51.7361 159.5948,-176.0458 139.00977,-241.3692 -42.67706,-135.4288 -57.51953,-220.9531 -57.51953,-220.9531 h -164.69922 l 57.93555,267.8086 c -28.64419,20.2193 -94.24051,30.3301 -144.78907,30.3301 H -633.6404 v -556.3506 z m 892.99961,258.2119 v 681.9203 h 165.54687 v -681.9203 z"
       sodipodi:nodetypes="cccccscscccscccccccc"
       inkscape:export-filename="aile-text-logo-persian.svg"
       inkscape:export-xdpi="96"
       inkscape:export-ydpi="96" /><path
       d="m -466.17284,-3044.2461 v 113.1172 a 18,18 45 0 0 18,18 h 316.5781 a 18,18 135 0 0 18,-18 l 0,-113.1172 a 18,18 45 0 0 -18,-18 h -316.5781 a 18,18 135 0 0 -18,18 z"
       style="font-weight:800;font-size:1659.18px;line-height:1.4;font-family:Rokh;-inkscape-font-specification:'Rokh Ultra-Bold';font-feature-settings:'ss02';letter-spacing:0px;word-spacing:0px;direction:rtl;opacity:0.98;fill:#fe5e37;fill-opacity:0.980392;stroke-width:45.5239;stroke-linecap:square;stroke-linejoin:round;paint-order:markers fill stroke"
       id="path1-21"
       inkscape:path-effect="#path-effect19"
       inkscape:original-d="m -466.17284,-3062.2461 v 149.1172 h 352.5781 v -149.1172 z"
       transform="translate(-6.850386,-395.0719)" /><g
       id="g17"
       transform="translate(-2032.8949,-4486.8606)"
       inkscape:export-filename="aile-text-logo-english.svg"
       inkscape:export-xdpi="96"
       inkscape:export-ydpi="96"><path
         style="fill:url(#linearGradient17);stroke:none;stroke-width:1.43412"
         d="m 616.92249,1177.2256 v 129.0711 c 0,15.1516 -3.39313,36.6397 12.91268,44.9049 21.93545,11.1185 52.02805,-23.4505 67.39809,-35.7271 39.56612,-31.6028 79.11157,-63.2477 119.03206,-94.3996 16.31886,-12.7345 33.99826,-32.8734 53.06248,-41.0696 12.16248,-5.2289 32.74786,-1.3455 45.89186,-1.3455 h 104.69084 c 23.6276,0 50.0449,0.9797 63.2376,-22.9459 6.6815,-12.1178 5.6002,-26.8037 5.6002,-40.1554 v -70.2719 -263.87835 c 0,-104.98656 -5.1417,-207.26119 -58.1903,-301.16543 C 989.80325,408.10037 933.46642,347.4914 862.15719,304.70699 647.83439,176.11623 356.78054,240.12249 220.66352,451.5604 c -41.83589,64.98619 -65.52743,138.49866 -72.94212,215.11815 -5.5641,57.49616 -0.46308,116.39245 15.4145,172.09453 17.2327,60.4563 46.53364,115.85395 85.7907,164.92392 41.90229,52.3769 95.82281,95.1613 155.74597,125.1227 66.48257,33.2409 138.23852,48.4059 212.24992,48.4059 m 268.18063,-84.613 c -10.29355,-22.9281 -11.67375,-45.593 -29.11295,-65.9697 C 787.30654,946.3903 670.82393,988.92741 579.63535,975.83458 488.41822,962.73764 407.30031,902.38875 370.86676,817.26128 298.84994,648.99312 415.64691,446.89535 602.58128,438.70981 c 34.17152,-1.49621 67.95008,2.99201 100.38847,13.80671 33.24422,11.08347 63.72789,28.47864 90.34962,51.28647 50.45826,43.22942 81.78749,105.96892 89.93905,171.48028 5.20083,41.79637 1.8447,85.5409 1.8447,127.6368 v 289.69253"
         id="path16"
         sodipodi:nodetypes="cssssssssscssssssssccssssssssc" /></g><path
       d="m -46.46274,-4204.1347 c -42.9663,0 -78.3506,13.9012 -106.1523,41.7031 -27.8018,27.8017 -41.7032,63.186 -41.7032,106.1523 v 16.4278 l 147.8555,61.4941 v -72.0312 H 426.0176 v -153.7461 z"
       style="font-weight:800;font-size:1659.18px;line-height:1.4;font-family:Rokh;-inkscape-font-specification:'Rokh Ultra-Bold';font-feature-settings:'ss02';letter-spacing:0px;word-spacing:0px;direction:rtl;opacity:0.98;fill:#070731;fill-opacity:0.980392;stroke-width:45.5239;stroke-linecap:square;stroke-linejoin:round;paint-order:markers fill stroke"
       id="path1-0"
       sodipodi:nodetypes="ssscccccs" /></g></svg>
