<?xml version="1.0" encoding="UTF-8" standalone="no"?>
<!-- Created with Inkscape (http://www.inkscape.org/) -->

<svg
   version="1.1"
   id="svg1"
   width="2816"
   height="1536"
   viewBox="0 0 2816 1536"
   sodipodi:docname="AileLogo.svg"
   inkscape:version="1.3.2 (091e20e, 2023-11-25, custom)"
   xml:space="preserve"
   xmlns:inkscape="http://www.inkscape.org/namespaces/inkscape"
   xmlns:sodipodi="http://sodipodi.sourceforge.net/DTD/sodipodi-0.dtd"
   xmlns:xlink="http://www.w3.org/1999/xlink"
   xmlns="http://www.w3.org/2000/svg"
   xmlns:svg="http://www.w3.org/2000/svg"><defs
     id="defs1"><linearGradient
       id="linearGradient13"
       inkscape:collect="always"><stop
         style="stop-color:#3b63c0;stop-opacity:1;"
         offset="0"
         id="stop13" /><stop
         style="stop-color:#101934;stop-opacity:1;"
         offset="1"
         id="stop14" /></linearGradient><linearGradient
       id="linearGradient1"
       inkscape:collect="always"><stop
         style="stop-color:#416ecb;stop-opacity:1;"
         offset="0"
         id="stop1" /><stop
         style="stop-color:#2d46a6;stop-opacity:1;"
         offset="1"
         id="stop2" /></linearGradient><linearGradient
       inkscape:collect="always"
       xlink:href="#linearGradient1"
       id="linearGradient2"
       x1="509.89462"
       y1="383.37906"
       x2="569.07904"
       y2="1155.1715"
       gradientUnits="userSpaceOnUse"
       gradientTransform="matrix(1.4341211,0,0,1.4341211,-186.29307,-305.45426)" /><linearGradient
       inkscape:collect="always"
       xlink:href="#linearGradient1"
       id="linearGradient7"
       gradientUnits="userSpaceOnUse"
       gradientTransform="matrix(1.4341211,0,0,1.4341211,604.52735,1315.6694)"
       x1="509.89462"
       y1="383.37906"
       x2="569.07904"
       y2="1155.1715" /><linearGradient
       inkscape:collect="always"
       xlink:href="#linearGradient13"
       id="linearGradient14"
       x1="145.54642"
       y1="653.77356"
       x2="2766.5166"
       y2="653.77356"
       gradientUnits="userSpaceOnUse" /><linearGradient
       inkscape:collect="always"
       xlink:href="#linearGradient13"
       id="linearGradient15"
       gradientUnits="userSpaceOnUse"
       x1="145.54642"
       y1="189.32196"
       x2="1583.7904"
       y2="1255.7484" /></defs><sodipodi:namedview
     id="namedview1"
     pagecolor="#ffffff"
     bordercolor="#000000"
     borderopacity="0.25"
     inkscape:showpageshadow="2"
     inkscape:pageopacity="0.0"
     inkscape:pagecheckerboard="0"
     inkscape:deskcolor="#d1d1d1"
     showguides="true"
     inkscape:zoom="0.071555398"
     inkscape:cx="-363.35484"
     inkscape:cy="1670.0347"
     inkscape:window-width="1920"
     inkscape:window-height="1009"
     inkscape:window-x="-8"
     inkscape:window-y="-8"
     inkscape:window-maximized="1"
     inkscape:current-layer="g1" /><g
     inkscape:groupmode="layer"
     inkscape:label="Image"
     id="g1"><g
       id="g5"
       transform="translate(105.77063,-27.948387)"
       inkscape:export-filename="aile-text-logo-english.svg"
       inkscape:export-xdpi="96"
       inkscape:export-ydpi="96"><path
         style="font-weight:bold;font-size:1264.39px;line-height:1.4;font-family:Rokh;-inkscape-font-specification:'Rokh Bold';font-feature-settings:'ss02';letter-spacing:0px;word-spacing:0px;direction:rtl;opacity:0.98;fill:#070731;stroke-width:52.5067;stroke-linecap:square;stroke-linejoin:round;paint-order:markers fill stroke"
         d="M 1399.2545,515.46245 V 1171.372 H 1217.0574 V 515.46245 Z m 320.6659,-276.93957 v 693.8065 c 0,34.01012 4.8586,58.78892 14.5758,74.33642 10.6889,14.5758 28.1798,23.8071 52.4727,27.694 l 51.0152,7.2879 v 131.1819 h -94.7425 c -70.9353,0 -122.9223,-17.4909 -155.9607,-52.4728 -33.0384,-34.9818 -49.5576,-88.9122 -49.5576,-161.79104 V 238.52288 Z m 180.7403,606.3519 c 0,-86.48288 8.2596,-154.01727 24.7787,-202.60316 17.491,-48.58588 46.6425,-83.56772 87.4546,-104.94552 41.784,-21.37779 101.0587,-32.06669 177.8244,-32.06669 67.0485,0 119.5213,6.80203 157.4183,20.40608 38.8687,13.60404 67.0485,36.92527 84.5394,69.96368 17.4909,33.03841 26.2364,78.70914 26.2364,137.01221 0,62.18994 -18.4627,107.37481 -55.3879,135.55463 -35.9536,27.2081 -88.4263,40.81214 -157.4183,40.81214 h -163.2486 c 1.9435,35.95357 8.2596,63.64752 18.9485,83.08187 10.6889,18.46268 27.2082,31.58088 49.5577,39.35458 22.3495,6.8021 53.9303,10.2031 94.7424,10.2031 h 190.9426 v 107.8606 c -44.699,9.7172 -84.5395,17.005 -119.5213,21.8637 -34.9818,4.8586 -75.3082,7.2878 -120.9789,7.2878 -77.7374,0 -137.984,-10.6889 -180.7395,-32.0666 -41.7839,-22.3495 -71.4212,-57.3313 -88.9122,-104.9455 -17.4909,-48.58595 -26.2363,-114.1769 -26.2363,-196.77292 z m 326.4971,-45.18488 c 24.293,0 41.7839,-4.37273 52.4728,-13.11819 11.6606,-9.71718 17.4909,-26.23638 17.4909,-49.5576 0,-37.897 -7.7737,-63.64752 -23.3212,-77.25157 -15.5475,-14.57576 -42.2698,-21.86365 -80.1667,-21.86365 -44.6991,0 -74.8223,12.14647 -90.3698,36.43942 -15.5476,24.29295 -23.3213,66.0768 -23.3213,125.35159 z"
         id="text2"
         aria-label="ile"
         sodipodi:nodetypes="ccccccsccccsssccsccscsscscccsccssccsscscsscs" /><path
         style="fill:url(#linearGradient2);stroke:none;stroke-width:1.43412"
         d="m 616.92249,1177.2256 v 129.0711 c 0,15.1516 -3.39313,36.6397 12.91268,44.9049 21.93545,11.1185 52.02805,-23.4505 67.39809,-35.7271 39.56612,-31.6028 79.11157,-63.2477 119.03206,-94.3996 16.31886,-12.7345 33.99826,-32.8734 53.06248,-41.0696 12.16248,-5.2289 32.74786,-1.3455 45.89186,-1.3455 h 104.69084 c 23.6276,0 50.0449,0.9797 63.2376,-22.9459 6.6815,-12.1178 5.6002,-26.8037 5.6002,-40.1554 v -70.2719 -263.87835 c 0,-104.98656 -5.1417,-207.26119 -58.1903,-301.16543 C 989.80325,408.10037 933.46642,347.4914 862.15719,304.70699 647.83439,176.11623 356.78054,240.12249 220.66352,451.5604 c -41.83589,64.98619 -65.52743,138.49866 -72.94212,215.11815 -5.5641,57.49616 -0.46308,116.39245 15.4145,172.09453 17.2327,60.4563 46.53364,115.85395 85.7907,164.92392 41.90229,52.3769 95.82281,95.1613 155.74597,125.1227 66.48257,33.2409 138.23852,48.4059 212.24992,48.4059 m 268.18063,-84.613 c -10.29355,-22.9281 -11.67375,-45.593 -29.11295,-65.9697 C 787.30654,946.3903 670.82393,988.92741 579.63535,975.83458 488.41822,962.73764 407.30031,902.38875 370.86676,817.26128 298.84994,648.99312 415.64691,446.89535 602.58128,438.70981 c 34.17152,-1.49621 67.95008,2.99201 100.38847,13.80671 33.24422,11.08347 63.72789,28.47864 90.34962,51.28647 50.45826,43.22942 81.78749,105.96892 89.93905,171.48028 5.20083,41.79637 1.8447,85.5409 1.8447,127.6368 v 289.69253"
         id="path1"
         sodipodi:nodetypes="cssssssssscssssssssccssssssssc" /><path
         d="m 1217.0574,264.75926 c 0,-17.49092 9.2314,-26.23638 27.694,-26.23638 h 139.9274 c 15.5475,0 23.3212,8.74546 23.3212,26.23638 v 120.97887 c 0,16.51919 -7.7737,24.7788 -23.3212,24.7788 h -139.9274 c -18.4626,0 -27.694,-8.25961 -27.694,-24.7788 z"
         style="font-weight:bold;font-size:1264.39px;line-height:1.4;font-family:Rokh;-inkscape-font-specification:'Rokh Bold';font-feature-settings:'ss02';letter-spacing:0px;word-spacing:0px;direction:rtl;opacity:0.98;fill:#fe5e37;fill-opacity:1;stroke-width:52.5067;stroke-linecap:square;stroke-linejoin:round;paint-order:markers fill stroke"
         id="path1-2" /></g><g
       id="g7"
       transform="translate(105.77065,1684.012)"
       inkscape:export-filename="logo-raw-mono.svg"
       inkscape:export-xdpi="96"
       inkscape:export-ydpi="96"><path
         style="fill:#000000;stroke:none;stroke-width:1.43412"
         d="m 1301.9722,2763.4092 v 129.0711 c 0,15.1516 -3.3931,36.6397 12.9127,44.9049 21.9354,11.1185 52.028,-23.4505 67.3981,-35.7271 39.5661,-31.6028 79.1116,-63.2477 119.032,-94.3996 16.3189,-12.7345 33.9983,-32.8734 53.0625,-41.0696 12.1625,-5.2289 32.7479,-1.3455 45.8919,-1.3455 h 104.6908 c 23.6276,0 50.0449,0.9797 63.2376,-22.9459 6.6815,-12.1178 5.6002,-26.8037 5.6002,-40.1554 v -70.2719 -263.8783 c 0,-104.9866 -5.1417,-207.2612 -58.1903,-301.1654 -40.7547,-72.1425 -97.0916,-132.7514 -168.4008,-175.5359 -214.3228,-128.5907 -505.3765,-64.5845 -641.49357,146.8535 -41.83589,64.9861 -65.52743,138.4986 -72.94212,215.1181 -5.5641,57.4962 -0.46308,116.3925 15.4145,172.0945 17.2327,60.4563 46.53364,115.854 85.79074,164.924 41.9022,52.3768 95.82285,95.1612 155.74595,125.1226 66.4826,33.2409 138.2385,48.4059 212.2498,48.4059 m 268.1806,-84.613 c -10.2935,-22.9281 -11.6737,-45.593 -29.1129,-65.9696 -68.6836,-80.2526 -185.1662,-37.7155 -276.3548,-50.8084 -91.2171,-13.0969 -172.3349,-73.4458 -208.7685,-158.5733 -72.01685,-168.2681 44.7802,-370.3659 231.7144,-378.5514 34.1715,-1.4962 67.9501,2.992 100.3885,13.8067 33.2442,11.0834 63.7279,28.4786 90.3496,51.2864 50.4583,43.2295 81.7875,105.969 89.939,171.4803 5.2009,41.7964 1.8447,85.5409 1.8447,127.6368 v 289.6925"
         id="path7"
         sodipodi:nodetypes="cssssssssscssssssssccssssssssc" /></g><rect
       style="opacity:0.98;fill:#fe5e37;fill-opacity:0.980392;stroke:none;stroke-width:6.91654;stroke-linecap:square;stroke-linejoin:round;paint-order:markers fill stroke"
       id="rect8"
       width="1573.4789"
       height="1573.4789"
       x="3713"
       y="1296"
       rx="344.61392"
       ry="344.61392" /><path
       style="fill:#ffffff;stroke:none;stroke-width:1.43412"
       d="m 4499.4823,2464.0143 v 129.0711 c 0,15.1516 -3.3931,36.6397 12.9127,44.9049 21.9354,11.1185 52.028,-23.4505 67.3981,-35.7271 39.5661,-31.6028 79.1116,-63.2477 119.032,-94.3996 16.3189,-12.7345 33.9983,-32.8734 53.0625,-41.0696 12.1625,-5.2289 32.7479,-1.3455 45.8919,-1.3455 h 104.6908 c 23.6276,0 50.0449,0.9797 63.2376,-22.9459 6.6815,-12.1178 5.6002,-26.8037 5.6002,-40.1554 v -70.2719 -263.8783 c 0,-104.9866 -5.1417,-207.2612 -58.1903,-301.1654 -40.7547,-72.1425 -97.0916,-132.7515 -168.4008,-175.5359 -214.3228,-128.5907 -505.3766,-64.5845 -641.4936,146.8534 -41.8359,64.9862 -65.5275,138.4987 -72.9422,215.1182 -5.5641,57.4962 -0.463,116.3924 15.4145,172.0945 17.2327,60.4563 46.5337,115.854 85.7908,164.9239 41.9022,52.3769 95.8228,95.1613 155.7459,125.1227 66.4826,33.2409 138.2385,48.4059 212.2499,48.4059 m 268.1806,-84.613 c -10.2935,-22.9281 -11.6737,-45.593 -29.1129,-65.9697 -68.6836,-80.2526 -185.1662,-37.7154 -276.3548,-50.8083 -91.2172,-13.0969 -172.335,-73.4458 -208.7686,-158.5733 -72.0168,-168.2681 44.7802,-370.3659 231.7145,-378.5514 34.1715,-1.4963 67.9501,2.992 100.3885,13.8067 33.2442,11.0834 63.7279,28.4786 90.3496,51.2864 50.4583,43.2295 81.7875,105.9689 89.939,171.4803 5.2009,41.7964 1.8447,85.5409 1.8447,127.6368 v 289.6925"
       id="path8"
       sodipodi:nodetypes="cssssssssscssssssssccssssssssc" /><path
       style="fill:url(#linearGradient7);stroke:none;stroke-width:1.43412"
       d="m 1407.7429,2798.3492 v 129.0711 c 0,15.1516 -3.3931,36.6397 12.9127,44.9049 21.9354,11.1185 52.028,-23.4505 67.3981,-35.7271 39.5661,-31.6028 79.1116,-63.2477 119.032,-94.3996 16.3189,-12.7345 33.9983,-32.8734 53.0625,-41.0696 12.1625,-5.2289 32.7479,-1.3455 45.8919,-1.3455 h 104.6908 c 23.6276,0 50.0449,0.9797 63.2376,-22.9459 6.6815,-12.1178 5.6002,-26.8037 5.6002,-40.1554 v -70.2719 -263.8783 c 0,-104.9866 -5.1417,-207.2612 -58.1903,-301.1654 -40.7547,-72.1425 -97.0916,-132.7515 -168.4008,-175.5359 -214.3228,-128.5907 -505.3766,-64.5845 -641.4936,146.8534 -41.83593,64.9862 -65.52745,138.4987 -72.94215,215.1182 -5.5641,57.4961 -0.4631,116.3924 15.41452,172.0945 17.2327,60.4563 46.53363,115.854 85.79073,164.9239 41.9022,52.3769 95.8228,95.1613 155.7459,125.1227 66.4826,33.2409 138.2385,48.4059 212.2499,48.4059 m 268.1806,-84.613 c -10.2935,-22.9281 -11.6737,-45.593 -29.1129,-65.9697 -68.6836,-80.2526 -185.1662,-37.7155 -276.3548,-50.8083 -91.2172,-13.0969 -172.335,-73.4458 -208.7686,-158.5733 -72.0168,-168.2681 44.7802,-370.3659 231.7145,-378.5515 34.1715,-1.4962 67.9501,2.9921 100.3885,13.8068 33.2442,11.0834 63.7279,28.4786 90.3496,51.2864 50.4583,43.2294 81.7875,105.969 89.939,171.4803 5.2009,41.7964 1.8447,85.5409 1.8447,127.6368 v 289.6925"
       id="path6"
       sodipodi:nodetypes="cssssssssscssssssssccssssssssc"
       inkscape:export-filename="logo-raw-colored.svg"
       inkscape:export-xdpi="96"
       inkscape:export-ydpi="96" /><rect
       style="opacity:0.98;fill:#3e67c5;fill-opacity:1;stroke:none;stroke-width:6.91654;stroke-linecap:square;stroke-linejoin:round;paint-order:markers fill stroke"
       id="rect9"
       width="1573.4789"
       height="1573.4789"
       x="3665.6614"
       y="3334.8936"
       rx="344.61392"
       ry="344.61392"
       inkscape:export-filename="rect-app-icon.svg"
       inkscape:export-xdpi="96"
       inkscape:export-ydpi="96" /><path
       style="fill:#ffffff;stroke:none;stroke-width:1.43412"
       d="m 4452.1438,4502.9077 v 129.0711 c 0,15.1516 -3.3931,36.6397 12.9127,44.9049 21.9354,11.1185 52.028,-23.4505 67.3981,-35.7271 39.5661,-31.6028 79.1116,-63.2477 119.032,-94.3996 16.3189,-12.7345 33.9983,-32.8734 53.0625,-41.0696 12.1625,-5.2289 32.7479,-1.3455 45.8919,-1.3455 h 104.6908 c 23.6276,0 50.0449,0.9797 63.2376,-22.9459 6.6815,-12.1178 5.6002,-26.8037 5.6002,-40.1554 v -70.2719 -263.8783 c 0,-104.9866 -5.1417,-207.2612 -58.1903,-301.1654 -40.7547,-72.1425 -97.0916,-132.7515 -168.4008,-175.5359 -214.3228,-128.5907 -505.3766,-64.5845 -641.4936,146.8534 -41.8359,64.9862 -65.5275,138.4987 -72.9422,215.1182 -5.5641,57.4962 -0.463,116.3924 15.4145,172.0945 17.2327,60.4563 46.5337,115.854 85.7908,164.9239 41.9022,52.3769 95.8228,95.1613 155.7459,125.1227 66.4826,33.2409 138.2385,48.4059 212.2499,48.4059 m 268.1806,-84.613 c -10.2935,-22.9281 -11.6737,-45.593 -29.1129,-65.9697 -68.6836,-80.2526 -185.1662,-37.7154 -276.3548,-50.8083 -91.2172,-13.0969 -172.335,-73.4458 -208.7686,-158.5733 -72.0168,-168.2681 44.7802,-370.3659 231.7145,-378.5514 34.1715,-1.4963 67.9501,2.992 100.3885,13.8067 33.2442,11.0834 63.7279,28.4786 90.3496,51.2864 50.4583,43.2295 81.7875,105.9689 89.939,171.4803 5.2009,41.7964 1.8447,85.5409 1.8447,127.6368 v 289.6925"
       id="path9"
       sodipodi:nodetypes="cssssssssscssssssssccssssssssc" /><g
       id="g15"
       inkscape:export-filename="aile-text-logo-persian.svg"
       inkscape:export-xdpi="96"
       inkscape:export-ydpi="96"><g
         id="g12"
         transform="translate(20.598661,-1851.7392)"
         style="fill:url(#linearGradient14);fill-opacity:1"><path
           id="path11"
           style="fill:url(#linearGradient15);fill-opacity:1;stroke:none;stroke-width:1.43412"
           d="m 2414.0693,-45.827206 c -56.2589,0 -102.5892,18.20258 -138.9922,54.6054685 -36.4028,36.4028885 -54.6054,82.7331795 -54.6054,138.9921875 v 21.51172 l 148.9218,59.56836 v -94.31641 h 349.1367 l 47.9864,-180.361326 z m -860.4316,130.720703 -218.418,57.914063 8.2734,754.47656 c -33.0934,27.57794 -79.977,41.36719 -140.6484,41.36719 H 1088.749 V 781.40912 c 0,-104.98645 -5.1429,-207.26187 -58.1914,-301.16601 C 989.80288,408.10073 933.46636,347.49232 862.1572,304.70795 647.83461,176.11732 356.77994,240.12181 220.66306,451.55951 c -41.83585,64.98613 -65.52673,138.49973 -72.94141,215.11914 -5.56409,57.49611 -0.4635,116.39173 15.41406,172.09375 17.23269,60.45624 46.534,115.85391 85.79102,164.9238 41.90225,52.3769 95.82299,95.1617 155.74609,125.1231 66.48251,33.2408 138.23868,48.4062 212.25,48.4062 v 129.0703 c 0,15.1516 -3.39368,36.6411 12.91211,44.9063 21.93543,11.1185 52.02842,-23.4519 67.39844,-35.7285 39.56608,-31.6028 79.1108,-63.2466 119.03125,-94.3985 16.31884,-12.7344 33.9983,-32.8741 53.0625,-41.0703 12.16247,-5.2289 32.74859,-1.3457 45.89258,-1.3457 h 104.6914 c 0.6271,0 1.2794,-0.024 1.9102,-0.023 h 61.8886 124.0996 c 57.3622,0 108.657,-9.9271 153.8848,-29.7832 45.2279,-19.8562 82.1822,-47.9858 110.8633,-84.3887 35.2998,76.1151 101.4882,114.1719 198.5625,114.1719 h 72.8066 138.9922 c 75.012,0 141.2004,-14.8916 198.5625,-44.6758 58.4653,-29.7842 103.1419,-71.703 134.0293,-125.7559 31.9904,-55.15583 47.9844,-118.5844 47.9844,-190.28707 0,-35.29976 -4.4114,-73.90964 -13.2363,-115.82812 L 2160.9052,378.49115 1947.4521,481.081 2048.3877,898.93842 c -37.5061,26.47482 -89.354,39.71289 -155.541,39.71289 h -148.92 -64.5332 c -38.609,0 -69.4966,-11.03139 -92.6621,-33.09375 -22.0624,-23.16548 -33.0937,-52.39944 -33.0937,-87.69922 z m 1082.1601,148.919923 -216.7636,59.57031 v 918.34567 l 216.7636,-59.5683 z M 602.58103,438.7099 c 34.17148,-1.49621 67.95031,2.99195 100.38867,13.80664 33.24419,11.08346 63.7279,28.47931 90.34961,51.28711 50.45821,43.22938 81.7879,105.96918 89.93945,171.48047 5.20083,41.79633 1.84375,85.54086 1.84375,127.63672 v 289.69136 c -10.29354,-22.928 -11.6741,-45.592 -29.11328,-65.9687 C 787.30567,946.39098 670.8242,988.92772 579.63571,975.8349 488.41868,962.73798 407.2997,902.38807 370.86618,817.26068 298.84943,648.99269 415.64684,446.89543 602.58103,438.7099 Z"
           sodipodi:nodetypes="ssscccccscccscsscssscccscsssssccsscscsccsccccscscsccccccssssscssss" /></g><path
         d="m 1604.3891,-566.20664 c 0,-19.85613 10.4797,-29.78419 31.4389,-29.78419 h 158.8491 c 17.6499,0 26.4748,9.92806 26.4748,29.78419 v 137.3382 c 0,18.753 -8.8249,28.12951 -26.4748,28.12951 H 1635.828 c -20.9592,0 -31.4389,-9.37651 -31.4389,-28.12951 z"
         style="font-weight:bold;font-size:1264.39px;line-height:1.4;font-family:Rokh;-inkscape-font-specification:'Rokh Bold';font-feature-settings:'ss02';letter-spacing:0px;word-spacing:0px;direction:rtl;opacity:0.98;fill:#fe5e37;fill-opacity:1;stroke-width:59.6069;stroke-linecap:square;stroke-linejoin:round;paint-order:markers fill stroke"
         id="path1-2-5" /><path
         d="m 1857.9898,-566.20664 c 0,-19.85613 10.4797,-29.78419 31.4389,-29.78419 h 158.8491 c 17.6499,0 26.4748,9.92806 26.4748,29.78419 v 137.3382 c 0,18.753 -8.8249,28.12951 -26.4748,28.12951 h -158.8491 c -20.9592,0 -31.4389,-9.37651 -31.4389,-28.12951 z"
         style="font-weight:bold;font-size:1264.39px;line-height:1.4;font-family:Rokh;-inkscape-font-specification:'Rokh Bold';font-feature-settings:'ss02';letter-spacing:0px;word-spacing:0px;direction:rtl;opacity:0.98;fill:#fe5e37;fill-opacity:1;stroke-width:59.6069;stroke-linecap:square;stroke-linejoin:round;paint-order:markers fill stroke"
         id="path12" /></g></g></svg>
